# xmcd
#
# Track frame offsets:
#	150
#	16405
#	32262
#	61787
#	75535
#	105875
#	123435
#	139060
#	158872
#	182792
#	197912
#	233232
#	245325
#	270392
#
# Disc length: 4008 seconds
#
# Revision: 1
# Processed by: cddbd v1.4PL0 Copyright (c) Steve Scherf et al.
# Submitted via: EasyCDDAExtractor 5.1.0
#
DISCID=a90fa60e
DTITLE=Various Artist - The Hottest DIXIE PARTY In Town
DYEAR=1995
DGENRE=Dixieland
TTITLE0=Monty Sunshine´s Jazzband - Sweet Sue
TTITLE1=Old Merry Tale Jazzband - Just A Closer Walk With Thee
TTITLE2=Ken Coler - One Sweet Letter From You
TTITLE3=Hot Shots - Just Gone
TTITLE4=Max Collie´s Rhythm Aces - At A Gorgia Camp Meeting
TTITLE5=Abbi Hübner´s Low Down Wizzards - Wanted
TTITLE6=Rod Mason - Ian Wheeler - Westend Blues
TTITLE7=Terry Lightfoot - Sentimental Journey
TTITLE8=Crane River Jazzband - Buddy Bolden´s Blues
TTITLE9=Dreamland Orchestra - Alexander´s Ragtime Blues
TTITLE10=Humphrey Littleton - In Swinger
TTITLE11=Peter "Banjo" Meyer - Dardanella
TTITLE12=Monty Sunshine´s Jazzband - The Glory Of Love
TTITLE13=Crane River Jazzband - Snag It
EXTD=
EXTT0=
EXTT1=
EXTT2=
EXTT3=
EXTT4=
EXTT5=
EXTT6=
EXTT7=
EXTT8=
EXTT9=
EXTT10=
EXTT11=
EXTT12=
EXTT13=
PLAYORDER=
